<svg t="1682819271695" class="icon" viewBox="0 0 1024 1024" version="1.1" xmlns="http://www.w3.org/2000/svg" p-id="2734" width="200" height="200"><path d="M512.036571 923.428571A100.608 100.608 0 0 1 411.428571 822.857143v-9.142857h201.142858v9.142857a100.571429 100.571429 0 0 1-100.534858 100.571428z m0-18.285714a82.304 82.304 0 0 0 81.737143-73.142857h-163.547428a82.340571 82.340571 0 0 0 81.810285 73.142857z m306.249143-173.604571c-0.109714 27.574857-21.449143 50.285714-48.091428 50.176H251.922286c-26.642286-1.042286-47.104-24.557714-46.153143-52.077715 0.530286-15.670857 5.924571-26.697143 15.232-34.797714 1.444571-1.261714 2.870857-2.377143 4.571428-3.602286l3.419429-2.413714c18.230857-12.525714 29.568-34.121143 29.568-57.965714v-162.614857c0-120.210286 78.628571-223.670857 189.110857-253.805715 2.450286-35.382857 30.518857-63.579429 65.115429-63.579428 34.614857 0 62.610286 28.214857 64.987428 63.634286 110.409143 30.098286 189.110857 133.613714 189.110857 253.750857v162.578285c-0.073143 23.478857 11.008 45.202286 29.257143 57.764572 13.586286 8.594286 22.235429 21.467429 22.162286 42.971428z m-36.973714-19.858286l-0.475429-0.310857c-25.947429-17.737143-41.508571-48.091429-41.398857-80.585143v-162.541714c0-111.177143-74.934857-206.262857-178.267428-229.613715l-10.678857-2.413714v-16.822857c0-22.912-17.078857-41.106286-37.723429-41.106286-20.699429 0-37.851429 18.267429-37.851429 41.179429v16.658286l-10.678857 2.432c-103.405714 23.424-178.285714 118.436571-178.285714 229.686857V630.857143c0 32.859429-15.762286 62.939429-41.069714 80.310857-0.731429 0.548571-3.163429 2.249143-3.328 2.377143-1.060571 0.749714-1.846857 1.353143-2.56 1.974857-3.657143 3.181714-5.558857 7.094857-5.851429 15.049143-0.420571 12.836571 8.685714 23.296 19.291429 23.716571h517.851428c11.062857 0.054857 20.516571-10.020571 20.571429-22.857143 0.036571-11.026286-3.2-15.780571-9.545143-19.748571zM472.448 315.849143a9.142857 9.142857 0 1 1 8.265143 16.310857c-32.384 16.420571-52.443429 36.022857-60.708572 58.587429-8.795429 24.100571-13.147429 43.264-13.147428 57.252571a9.142857 9.142857 0 1 1-18.285714 0c0-16.493714 4.790857-37.595429 14.262857-63.524571 10.038857-27.428571 33.408-50.285714 69.613714-68.626286z" fill="#979797" p-id="2735"></path></svg>